<?xml version="1.0" encoding="UTF-8" standalone="no"?>
<!DOCTYPE svg PUBLIC "-//W3C//DTD SVG 1.1//EN"
  "http://www.w3.org/Graphics/SVG/1.1/DTD/svg11.dtd">
<svg xmlns="http://www.w3.org/2000/svg" viewBox="0 0 1363.78 800.9"><g id="Layer_2" data-name="Layer 2"><g id="Layer_1-2" data-name="Layer 1"><rect width="1363.78" height="800.9" style="fill:#fff"/><polygon points="841.2 749.9 795.76 749.9 795.76 633.9 604.76 633.9 604.76 749.9 558.32 749.9 539.76 776.9 699.76 776.9 859.76 776.9 841.2 749.9" style="fill:#153a4b"/><path d="M228.12,145.83h926.81c22.55,0,40.83,13.07,40.83,29.2V572.54c0,16.13-18.28,29.2-40.83,29.2H228.12c-22.55,0-40.83-13.07-40.83-29.2V175C187.29,158.9,205.57,145.83,228.12,145.83Z" style="fill:#fff"/><path d="M1294.2,58c7.53,0,13.63,4.45,13.64,9.93V602.62c0,5.49-6.11,9.93-13.64,9.94H71.49c-7.53,0-13.63-4.45-13.64-9.94V67.89C57.86,62.41,64,58,71.49,58H1294.2m0-29.35H71.49c-29.75,0-53.87,17.58-53.88,39.28h0V602.62c0,21.69,24.11,39.28,53.86,39.28H1294.2c29.75,0,53.87-17.58,53.88-39.27h0V67.89c0-21.69-24.12-39.28-53.86-39.28Z" style="fill:#153a4b"/><rect x="71.49" y="67.71" width="1223.27" height="68.58" style="fill:#fff;stroke:#153a4b;stroke-miterlimit:10;stroke-width:5px"/><rect x="71.43" y="149.02" width="200" height="452.72" style="fill:#fff;stroke:#153a4b;stroke-miterlimit:10;stroke-width:5px"/><rect x="287.29" y="149.02" width="790.56" height="452.72" style="fill:#fff;stroke:#153a4b;stroke-miterlimit:10;stroke-width:5px"/><rect x="1094.76" y="148.83" width="200" height="452.91" style="fill:#fff;stroke:#153a4b;stroke-miterlimit:10;stroke-width:5px"/><polygon points="1263.78 400.45 1223.78 377.36 1223.78 423.54 1263.78 400.45" style="fill:#153a4b"/><path d="M546.3,335l-4.72-4.92a108.34,108.34,0,0,1-6.05,11.35,82.72,82.72,0,0,0,2-18c0-27.43-16.46-41.58-16.46-41.58S504.57,296,504.57,323.43c0,.81,0,1.58.05,2.37L495.76,335l2.89,19.29,9-8.63a52.23,52.23,0,0,0,4.56,11.48H529.9a51.67,51.67,0,0,0,4.51-11.29l9,8.44Zm-31.49,17.78c-1.95-4.21-5.88-14.52-5.88-29.39,0-18.32,7.74-30.1,12.09-35.27C521,288.16,507.44,314.64,514.81,352.82Z" style="fill:#0c82b9"/><path d="M323.89,327q.24,8.63,5.21,13.89t13.47,5.27a25,25,0,0,0,13.77-4.08v12.46q-6.36,3.71-15.81,3.71-14,0-22.69-8.86T309.16,327q.12-13.29,8.68-22.39t23.41-9.1a31.53,31.53,0,0,1,15.09,3.35v12.69a24.85,24.85,0,0,0-13.65-3.83q-8.38,0-13.53,5.27T323.89,327Z" style="fill:#0c82b9"/><path d="M370.22,312.86V299.57q6.82-4.19,19.64-4.19,24.66,0,24.66,23v38.79H400.28v-7.3q-4.2,7.78-15.81,7.78-8.62,0-13.71-5a17.1,17.1,0,0,1-5.09-12.69q0-8.62,6.47-13.53t18.68-4.91h8.86v-3.71q0-5-2.64-7.67c-1.75-1.75-4.75-2.63-9-2.63A31.7,31.7,0,0,0,370.22,312.86Zm29.46,18.2h-7.43q-5.62,0-8.62,2.33a7.24,7.24,0,0,0-3,5.93q0,7.67,8.86,7.66a9.84,9.84,0,0,0,7.48-2.81,10.18,10.18,0,0,0,2.7-7.36Z" style="fill:#0c82b9"/><path d="M443.74,296.46v9.34a20.7,20.7,0,0,1,18.56-10.18q11.85,0,18.85,8.5t7,22.39q0,13.65-7,22.57t-19,8.92q-12.21,0-18.44-9.94v32H429.37V296.46Zm15.09,49.21a13,13,0,0,0,10.53-5q4.06-5,4.07-13.95t-4.07-13.95a12.76,12.76,0,0,0-10.3-5,14.54,14.54,0,0,0-10.77,4.67q-4.56,4.67-4.55,13.89t4.43,14.25A13.72,13.72,0,0,0,458.83,345.67Z" style="fill:#0c82b9"/><path d="M572.49,307.23v30.89a7,7,0,0,0,7.66,7.79,15,15,0,0,0,8.38-2.52v12.33a24.7,24.7,0,0,1-10.78,2q-19.63,0-19.63-19.88V307.23H549V296.46h9.1V281.85h14.37v14.61h15.08v10.77Z" style="fill:#0c82b9"/><path d="M601.94,312.86V299.57q6.82-4.19,19.64-4.19,24.66,0,24.66,23v38.79H632v-7.3q-4.18,7.78-15.8,7.78-8.62,0-13.71-5a17.1,17.1,0,0,1-5.09-12.69q0-8.62,6.47-13.53t18.67-4.91h8.86v-3.71c0-3.35-.87-5.91-2.63-7.67s-4.75-2.63-9-2.63A31.7,31.7,0,0,0,601.94,312.86Zm29.45,18.2H624c-3.75,0-6.63.78-8.62,2.33a7.21,7.21,0,0,0-3,5.93q0,7.67,8.86,7.66a9.85,9.85,0,0,0,7.48-2.81,10.17,10.17,0,0,0,2.69-7.36Z" style="fill:#0c82b9"/><path d="M661.69,357.16V272.51h14.36v84.65Z" style="fill:#0c82b9"/><path d="M738.31,279.81v14.61A36.61,36.61,0,0,0,719.16,289q-5.64,0-8.8,2.52a8,8,0,0,0,.24,13,56.6,56.6,0,0,0,10.23,5.69c3.2,1.43,5.79,2.69,7.79,3.77a42,42,0,0,1,6.52,4.49,18.06,18.06,0,0,1,5.27,6.88,22.85,22.85,0,0,1,1.74,9.16q0,10.79-7.73,17.18t-20.29,6.41q-13.65,0-22.63-5.15V337.52A37.6,37.6,0,0,0,714,345a13.77,13.77,0,0,0,8.86-2.69,8.83,8.83,0,0,0,3.35-7.25,8.43,8.43,0,0,0-.84-3.83,9.29,9.29,0,0,0-3.41-3.35c-1.72-1.12-3-1.92-4-2.4s-2.81-1.35-5.69-2.63c-.8-.4-1.39-.68-1.79-.84-3-1.36-5.35-2.57-7.19-3.65a43.74,43.74,0,0,1-6-4.37,17.35,17.35,0,0,1-4.85-6.59,22.26,22.26,0,0,1-1.62-8.74,20.28,20.28,0,0,1,7.6-16.52q7.61-6.22,20.18-6.23Q730.05,275.86,738.31,279.81Z" style="fill:#163b4d"/><path d="M568.77,369.73v3.33a12.12,12.12,0,0,0-2.62-1.1,11.68,11.68,0,0,0-3-.32,7.49,7.49,0,0,0-5.55,2.26,9.25,9.25,0,0,0,0,12,7.81,7.81,0,0,0,5.83,2.24,8.62,8.62,0,0,0,5.37-1.64v3.42a10.19,10.19,0,0,1-5.66,1.35A11.61,11.61,0,0,1,555,371.68a10.93,10.93,0,0,1,8.05-3.16A11.54,11.54,0,0,1,568.77,369.73Z" style="fill:#163b4d"/><path d="M571.77,379.81a12.11,12.11,0,0,1,2.76-8.3,10.43,10.43,0,0,1,14.89,0,14,14,0,0,1,0,16.64,10.37,10.37,0,0,1-14.85,0A12,12,0,0,1,571.77,379.81Zm5.31-6a9.5,9.5,0,0,0-1.76,6,9.39,9.39,0,0,0,1.81,6.06,5.94,5.94,0,0,0,4.85,2.24,5.84,5.84,0,0,0,4.87-2.21,9.59,9.59,0,0,0,1.75-6.09,9.42,9.42,0,0,0-1.77-6.06,6.48,6.48,0,0,0-9.75,0Z" style="fill:#163b4d"/><path d="M596.07,391v-22.2h4l5.47,9.29c1,1.73,1.92,3.34,2.75,4.81s1.39,2.5,1.69,3.09l.46.93q-.19-3-.19-8.8v-9.32h3.39V391h-4l-5.5-9.25c-1-1.67-1.89-3.25-2.72-4.73s-1.4-2.55-1.73-3.21l-.49-1c.18,2.2.26,5.15.26,8.86V391Z" style="fill:#163b4d"/><path d="M630.46,369.7v3.36a9.27,9.27,0,0,0-5-1.38,4.58,4.58,0,0,0-2.85.8,2.58,2.58,0,0,0-1,2.13,2.54,2.54,0,0,0,1,2.11,16.18,16.18,0,0,0,3.13,1.71,23.3,23.3,0,0,1,2.16,1,14.28,14.28,0,0,1,1.78,1.2,4.77,4.77,0,0,1,1.48,1.85,5.92,5.92,0,0,1,.48,2.45,5.6,5.6,0,0,1-2.08,4.61,8.24,8.24,0,0,1-5.36,1.68,11.72,11.72,0,0,1-6.06-1.42V386.3a9.75,9.75,0,0,0,6,1.94,4.48,4.48,0,0,0,2.87-.84,2.8,2.8,0,0,0,1-2.32,2.5,2.5,0,0,0-.62-1.63,4.63,4.63,0,0,0-1.35-1.12c-.49-.25-1.21-.6-2.18-1l-1.2-.56c-.23-.11-.61-.3-1.14-.59a10.34,10.34,0,0,1-1.17-.72c-.25-.2-.56-.48-.93-.83a3.38,3.38,0,0,1-.81-1,7.93,7.93,0,0,1-.46-1.24,5,5,0,0,1-.22-1.53,5.44,5.44,0,0,1,2.06-4.48,8.3,8.3,0,0,1,5.32-1.64A11.38,11.38,0,0,1,630.46,369.7Z" style="fill:#163b4d"/><path d="M649,382.58V368.81h3.39v13.7c0,2.88-.75,5.06-2.24,6.56a9.67,9.67,0,0,1-12.32.05,8.49,8.49,0,0,1-2.24-6.34v-14H639v13.93a5.51,5.51,0,0,0,1.37,4.14,5,5,0,0,0,3.61,1.3Q649,388.18,649,382.58Z" style="fill:#163b4d"/><path d="M660.49,388h9.09v3H657.1v-22.2h3.39Z" style="fill:#163b4d"/><path d="M686.25,368.81v2.83h-5.83V391H677V371.64h-5.79v-2.83Z" style="fill:#163b4d"/><path d="M689.64,391v-22.2H693V391Z" style="fill:#163b4d"/><path d="M698.07,391v-22.2h4l5.46,9.29c1,1.73,1.93,3.34,2.75,4.81s1.39,2.5,1.7,3.09l.46.93q-.19-3-.2-8.8v-9.32h3.4V391h-4l-5.5-9.25q-1.49-2.5-2.72-4.73c-.82-1.48-1.4-2.55-1.73-3.21l-.49-1q.25,3.3.26,8.86V391Z" style="fill:#163b4d"/><path d="M738.31,378.33V389h0l0,.23a11.94,11.94,0,0,1-7.18,2.07,11.59,11.59,0,0,1-8.38-3.06,11,11,0,0,1-3.18-8.33,10.94,10.94,0,0,1,11.37-11.46,12.82,12.82,0,0,1,6.45,1.48v3.49a11.6,11.6,0,0,0-6.32-1.78,7.64,7.64,0,0,0-5.75,2.27,9.39,9.39,0,0,0,0,12,7.9,7.9,0,0,0,5.94,2.21,9.94,9.94,0,0,0,3.76-.72v-6.13h-4.51v-2.93Z" style="fill:#163b4d"/><path d="M532.63,370.3a9,9,0,0,0-4.07,1,7.28,7.28,0,0,0-2.22-2.46l1.49-7.28h-13.6l1.26,6.15A7.88,7.88,0,0,0,504,377.9a6.83,6.83,0,0,0,3.17,12.88,6.72,6.72,0,0,0,1.62-.2,7.09,7.09,0,0,0,13.54.17,6.82,6.82,0,0,0,8.62-2.49,8.85,8.85,0,0,0,1.64.16,9.06,9.06,0,0,0,0-18.12Zm-23.47,4.55a4.24,4.24,0,0,0,.53,2.06,3.58,3.58,0,0,1-1.48,4.92,3.21,3.21,0,0,0-.61,5.3,2.6,2.6,0,0,1-.39.05,3.23,3.23,0,0,1-1.5-6.1,3.58,3.58,0,0,0,1.48-4.92,4.28,4.28,0,0,1,3.75-6.33,4.28,4.28,0,0,1,2.38.76A4.28,4.28,0,0,0,509.16,374.85Zm11.21-10.44-.22,3.48a7.36,7.36,0,0,0-1.35.59l-.83-4.07Zm2,8.47a3.52,3.52,0,0,1-2.84,1,3.63,3.63,0,0,1-1.87-.75,3.57,3.57,0,0,0,2.21-1,3.43,3.43,0,0,1,4.59-.21A3.52,3.52,0,0,0,522.38,372.88Zm12.74,1.77a5.35,5.35,0,0,0-2.45.58,3.59,3.59,0,0,1-3.82-.38,3.79,3.79,0,0,0,1.33-.37,5.29,5.29,0,0,1,2.45-.58,5.43,5.43,0,0,1,2.76.77Z" style="fill:#439bd6"/><polygon points="100 400.45 140 423.54 140 377.36 100 400.45" style="fill:#153a4b"/></g></g></svg>