<?xml version="1.0" encoding="UTF-8" standalone="no"?>
<!DOCTYPE svg PUBLIC "-//W3C//DTD SVG 1.1//EN"
  "http://www.w3.org/Graphics/SVG/1.1/DTD/svg11.dtd">
<svg xmlns="http://www.w3.org/2000/svg" viewBox="0 0 1330.47 762"><g id="Layer_2" data-name="Layer 2"><g id="Layer_1-2" data-name="Layer 1"><polygon points="823.59 735 778.15 735 778.15 619 587.15 619 587.15 735 540.71 735 522.15 762 682.15 762 842.15 762 823.59 735" style="fill:#b3b3b3"/><rect x="186.15" width="992" height="627" rx="40.16" style="fill:#fff"/><path d="M1276.59,43.06c7.53,0,13.63,4.45,13.64,9.94V587.72c0,5.49-6.11,9.93-13.64,9.94H53.88c-7.53,0-13.63-4.45-13.64-9.94V53c0-5.49,6.11-9.94,13.64-9.94H1276.59m0-29.35H53.88C24.13,13.71,0,31.29,0,53H0V587.72C0,609.41,24.12,627,53.86,627H1276.59c29.75,0,53.87-17.58,53.88-39.27h0V53c0-21.7-24.12-39.29-53.86-39.29Z" style="fill:#ccc"/><rect x="53.88" y="52.81" width="1221.27" height="68.58" style="fill:#566a8c"/><rect x="53.82" y="130.93" width="1221.33" height="455.91" style="fill:#566a8c"/><polygon points="53.82 362.16 128.82 405.46 128.82 318.86 53.82 362.16" style="fill:#fff"/></g></g></svg>